<svg xmlns="http://www.w3.org/2000/svg" viewBox="0 0 50 50" fill="#e4013b" width="512px" height="512px"><path d="M 14.802734 -0.013671875 A 1.0136013 1.0136013 0 0 0 14.638672 0 C 14.044112 0.0952761 11.673512 0.40034646 9.5332031 2.0058594 C 5.5813156 4.9695134 3.5814373 8.4710153 3.1015625 11.630859 C 2.7681809 13.826086 3.1886223 15.870454 4.2070312 17.392578 C 3.9957624 18.653735 4.049623 20.048208 4.6074219 21.369141 C 5.1762283 22.71614 6.3829722 23.868551 8.0683594 24.630859 C 8.1498034 25.288686 8.3120288 26.08199 8.8730469 26.896484 C 9.496613 27.801787 10.552654 28.609861 12.158203 29.115234 C 11.87141 29.762606 11.570379 30.523724 11.275391 31.273438 C 9.7594685 31.349878 8.2455938 31.148318 7.1015625 30.697266 C 5.9017873 30.224236 5.1805576 29.551681 4.9667969 28.744141 A 1.0001 1.0001 0 0 0 4.0234375 27.986328 A 1.0001 1.0001 0 0 0 3.0332031 29.255859 C 3.4584424 30.862319 4.8029627 31.941874 6.3671875 32.558594 C 7.610606 33.048831 9.0410691 33.275995 10.501953 33.289062 C 10.438918 33.460861 10.382313 33.589111 10.318359 33.765625 C 9.8668748 35.01149 9.9705492 36.200641 10.417969 37.265625 C 8.80388 37.73654 7.5873053 37.992152 6.6269531 38.009766 C 5.4779128 38.030836 4.6268134 37.781739 3.4980469 37.132812 A 1.0001 1.0001 0 1 0 2.5019531 38.867188 C 3.8431866 39.638261 5.1686028 40.037192 6.6640625 40.009766 C 8.0517403 39.984313 9.5782281 39.620807 11.546875 39.017578 C 11.583888 39.059032 11.616299 39.103824 11.654297 39.144531 C 12.356957 39.897313 13.220935 40.591579 14.162109 41.28125 C 12.106444 41.909967 10.50343 42.848258 9.3417969 43.876953 C 7.8331522 45.212947 7 46.633483 7 48 A 1.0001 1.0001 0 1 0 9 48 C 9 47.613517 9.4568632 46.447506 10.667969 45.375 C 11.854813 44.323979 13.710909 43.305224 16.324219 42.804688 C 16.510468 42.934258 16.676933 43.05303 16.865234 43.185547 C 18.104418 44.057873 19.196384 45.192889 20.439453 46.175781 C 21.682522 47.158673 23.152004 48 25 48 C 26.847996 48 28.317478 47.158673 29.560547 46.175781 C 30.803616 45.192889 31.895582 44.057873 33.134766 43.185547 C 33.321417 43.054191 33.440359 42.933119 33.625 42.804688 C 36.25864 43.30249 38.139372 44.318829 39.332031 45.375 C 40.543137 46.447506 41 47.613517 41 48 A 1.0001 1.0001 0 1 0 43 48 C 43 46.633483 42.166848 45.212947 40.658203 43.876953 C 39.465507 42.82075 37.671246 41.952586 35.535156 41.324219 C 36.506134 40.616664 37.624303 39.917391 38.345703 39.144531 C 38.391223 39.095761 38.399259 39.026404 38.443359 38.976562 C 40.380967 39.567833 41.963196 39.98459 43.335938 40.009766 C 44.831396 40.037196 46.156813 39.638261 47.498047 38.867188 A 1.0001 1.0001 0 1 0 46.501953 37.132812 C 45.373187 37.78174 44.522087 38.030839 43.373047 38.009766 C 42.44147 37.992676 41.048927 37.615149 39.507812 37.171875 C 39.936529 36.119898 40.125755 34.991152 39.681641 33.765625 C 39.602451 33.547054 39.536783 33.447681 39.458984 33.236328 C 40.930207 33.226268 42.380761 33.052234 43.632812 32.558594 C 45.197038 31.941874 46.541558 30.862319 46.966797 29.255859 A 1.0001 1.0001 0 1 0 45.033203 28.744141 C 44.819442 29.551681 44.098213 30.224236 42.898438 30.697266 C 41.732765 31.15685 40.173527 31.342869 38.628906 31.253906 C 38.360512 30.580766 38.097953 29.978279 37.833984 29.371094 C 39.358738 28.953172 40.445981 28.165177 41.138672 27.283203 C 41.776349 26.471276 42.0356 25.644239 42.160156 24.914062 C 44.32824 23.950066 45.609843 22.416573 45.974609 20.804688 C 46.356589 19.116734 46.002226 17.512828 45.607422 16.369141 C 46.232167 14.631089 46.111892 12.510121 45.236328 10.433594 C 43.999322 7.4998513 41.261541 4.5979881 36.876953 2.7441406 C 35.652099 2.2264128 34.479073 2.0724543 33.533203 2.0429688 C 32.587333 2.0134828 31.79491 2.1015625 31.607422 2.1015625 A 1.0001 1.0001 0 0 0 30.914062 3.8242188 C 32.290174 5.1437253 33.729318 6.9165931 34.832031 8.5566406 C 35.359546 9.3412047 35.424794 9.7050245 35.755859 10.363281 C 35.033007 9.9682888 34.246396 9.4916866 33.439453 8.9160156 C 31.6088 7.6100326 29.776087 5.9772235 28.943359 4.9355469 A 1.0001 1.0001 0 0 0 27.199219 5.2910156 C 26.675825 7.1608404 27.213209 9.5172125 28.224609 11.818359 C 29.236015 14.119507 30.76805 16.33492 32.753906 17.564453 C 33.516672 18.036873 34.951113 18.805051 36.640625 19.361328 C 36.4222 20.397249 36.517329 21.310418 36.634766 21.941406 C 35.985009 22.238768 35.101286 22.766246 34.626953 23.888672 C 34.408589 23.65365 34.184762 23.436501 33.953125 23.240234 C 31.711806 21.341153 28.92723 21 25 21 C 21.07277 21 18.288194 21.341153 16.046875 23.240234 C 15.971479 23.304118 15.903877 23.382388 15.830078 23.449219 C 15.151585 22.404552 14.225306 21.936896 13.566406 21.679688 C 13.65755 21.044203 13.704652 20.128682 13.396484 19.087891 C 15.384351 18.267342 17.009479 17.142481 17.84375 16.294922 C 21.076231 13.012658 22.170886 6.9739118 19.667969 2.2148438 A 1.0136013 1.0136013 0 0 0 17.953125 2.0859375 C 17.326948 2.9364387 16.132239 4.4554892 14.863281 5.8046875 C 14.302674 6.4007436 13.938835 6.5339864 13.392578 6.9863281 C 13.574152 6.4515247 13.745129 5.9233473 13.972656 5.359375 C 14.655393 3.6670713 15.432258 2.0494462 15.720703 1.4257812 A 1.0136013 1.0136013 0 0 0 14.802734 -0.013671875 z M 13.037109 2.4765625 C 12.701808 3.2116425 12.470652 3.667333 12.09375 4.6015625 C 11.736619 5.4867857 11.398893 6.3974366 11.15625 7.2363281 C 10.913607 8.0752197 10.738089 8.8066098 10.8125 9.5527344 A 1.0136013 1.0136013 0 0 0 12.107422 10.425781 C 13.636721 9.9767532 14.987552 8.631161 16.339844 7.1933594 C 17.186974 6.2926625 17.731429 5.5518459 18.373047 4.7460938 C 19.492826 8.3909545 18.563543 12.674597 16.398438 14.873047 C 15.850138 15.43008 14.129101 16.673267 12.253906 17.380859 C 10.378712 18.088452 8.4198788 18.28496 6.9667969 17.359375 C 6.6941202 17.18595 6.4495863 16.957153 6.2226562 16.701172 A 1.0001 1.0001 0 0 0 5.859375 16.224609 C 5.1760137 15.178577 4.838166 13.695662 5.1054688 11.935547 C 5.4930939 9.3831412 7.1478875 6.3282991 10.75 3.6269531 C 11.524101 3.0462759 12.320473 2.7149961 13.037109 2.4765625 z M 33.716797 4.0917969 C 34.443929 4.1324119 35.250714 4.230236 36.097656 4.5878906 C 40.069068 6.2670431 42.382834 8.8161793 43.392578 11.210938 C 44.402322 13.605695 44.086082 15.772238 43 16.929688 C 41.86201 18.143182 40.140538 18.210037 38.28125 17.767578 C 36.421962 17.32512 34.596267 16.35429 33.806641 15.865234 C 32.376497 14.979768 30.948282 13.046775 30.054688 11.013672 C 29.552733 9.8716283 29.282537 8.7505546 29.148438 7.7578125 C 30.143906 8.7038796 31.032455 9.6568212 32.277344 10.544922 C 33.251392 11.239805 34.2363 11.864614 35.148438 12.335938 C 36.060575 12.80726 36.86606 13.150513 37.707031 13.1875 A 1.0001 1.0001 0 0 0 38.738281 12.041016 C 38.542379 10.717411 37.669974 9.1931088 36.492188 7.4414062 C 35.712628 6.2819806 34.689497 5.1954231 33.716797 4.0917969 z M 44.082031 18.634766 C 44.14763 19.208552 44.149708 19.805297 44.023438 20.363281 C 43.752994 21.558358 43.056956 22.645125 40.945312 23.376953 L 40.320312 23.59375 L 40.275391 24.253906 C 40.245331 24.69943 40.062871 25.4167 39.566406 26.048828 C 39.092222 26.652587 38.324895 27.21698 36.984375 27.507812 C 36.6518 26.841041 36.314874 26.237566 35.966797 25.681641 A 1.0002108 1.0002108 0 0 0 36.341797 25.070312 C 36.522106 24.097789 38.066406 23.445312 38.066406 23.445312 L 38.933594 23.15625 L 38.722656 22.267578 C 38.722656 22.267578 38.462469 20.814353 38.578125 19.863281 C 40.452349 20.179018 42.516243 20.009871 44.082031 18.634766 z M 6.1230469 19.197266 C 7.8161241 20.16618 9.7302665 20.158162 11.494141 19.728516 C 11.70679 20.742772 11.5 22.087891 11.5 22.087891 L 11.304688 23.003906 L 12.205078 23.259766 C 12.205078 23.259766 13.944653 23.877583 14.394531 24.984375 A 1.0001 1.0001 0 0 0 14.412109 25.025391 C 13.933484 25.676452 13.479042 26.420611 13.033203 27.273438 C 11.599843 26.880155 10.898342 26.311681 10.519531 25.761719 C 10.113898 25.172814 10.021141 24.536852 9.9824219 23.962891 L 9.9375 23.302734 L 9.3125 23.085938 C 7.7028327 22.527971 6.8869624 21.626472 6.4492188 20.589844 C 6.2636184 20.15032 6.1682942 19.675426 6.1230469 19.197266 z M 25 23 C 28.81477 23 30.944225 23.311707 32.660156 24.765625 C 34.376088 26.219543 35.861233 29.088662 37.802734 34.447266 C 38.300223 35.820077 37.948025 36.642146 36.884766 37.78125 C 35.821506 38.920354 34.001718 40.129123 31.984375 41.548828 C 30.541559 42.564502 29.40804 43.745814 28.318359 44.607422 C 27.228679 45.46903 26.259004 46 25 46 C 23.740996 46 22.771321 45.46903 21.681641 44.607422 C 20.59196 43.745814 19.458441 42.564502 18.015625 41.548828 C 15.998282 40.129123 14.178494 38.920354 13.115234 37.78125 C 12.051975 36.642146 11.699777 35.820077 12.197266 34.447266 C 14.138767 29.088662 15.623912 26.219543 17.339844 24.765625 C 19.055775 23.311707 21.18523 23 25 23 z"/></svg>